<?xml version="1.0" encoding="UTF-8" standalone="no"?>
<svg width="33px" height="33px" viewBox="0 0 33 33" version="1.1" xmlns="http://www.w3.org/2000/svg" xmlns:xlink="http://www.w3.org/1999/xlink">
    <!-- Generator: Sketch 39.1 (31720) - http://www.bohemiancoding.com/sketch -->
    <title>Shape</title>
    <desc>Created with Sketch.</desc>
    <defs></defs>
    <g id="Page-1" stroke="none" stroke-width="1" fill="none" fill-rule="evenodd">
        <g id="Template" transform="translate(-16.000000, -4.000000)" fill="#19707B">
            <g id="Upper-Menu" transform="translate(0.000000, -1.000000)">
                <g id="Wings-Airlines-Logo" transform="translate(16.000000, 5.000000)">
                    <path d="M30.910302,0.40128667 C27.4616983,2.31283744 24.0940002,3.45092836 20.3015473,4.57796985 C16.7214719,5.6829125 12.9896983,6.65526202 9.5512077,8.22428057 C7.91286808,8.92039444 6.26441525,9.79329912 4.82833978,10.8429946 C3.95860393,11.395466 3.21022657,12.0142338 2.51241525,12.6440511 C1.72358506,13.340165 1.06622657,14.1357237 0.388641664,14.8649858 C0.0346794003,15.2185675 0.429094495,15.7710388 0.783056759,15.4506054 C1.53143412,14.7876399 2.40116997,14.2904157 3.19000015,13.7379444 C3.99905676,13.185473 4.82833978,12.7213971 5.68796242,12.2904695 C7.2656228,11.3844165 8.97475487,10.5999073 10.6940002,9.90379339 C10.8456983,9.87064511 10.97717,9.87064511 11.0580756,9.7822497 L11.1288681,9.7822497 C11.1288681,9.7822497 11.1288681,9.74910142 11.1996605,9.74910142 C11.4221511,9.67175543 11.6345285,9.59440945 11.857019,9.51706346 C12.2817737,9.36237149 12.7166417,9.20767952 13.222302,9.05298755 C14.1527171,8.77675189 15.0022266,8.50051623 15.8719624,8.22428057 C17.7327926,7.67180925 19.4419247,7.16353564 21.3027549,6.61106432 C24.3164907,5.71606078 27.1785285,4.69951355 30.0405662,3.29623639 C30.0405662,3.57247205 29.9697737,3.79346058 29.8989813,4.06969624 C29.8989813,4.42327789 29.7472832,4.77685953 29.6866039,5.08624347 C29.6866039,5.11939175 29.6158115,5.24093544 29.6158115,5.28513315 C29.6158115,5.36247913 29.6158115,5.43982512 29.5349058,5.56136881 C29.4742266,5.76025848 29.4034341,5.94809873 29.3326417,6.14698841 C29.1809436,6.50057005 29.0494719,6.84310227 28.8977737,7.16353564 C28.8977737,7.19668392 28.7460756,7.47291958 28.7460756,7.51711728 C28.6146039,7.67180925 28.5438115,7.82650122 28.4629058,7.99224262 C28.2606417,8.25742885 28.0381511,8.53366451 27.886453,8.80990017 C27.7549813,8.96459214 27.6032832,9.11928411 27.5324907,9.2408278 C27.4616983,9.31817379 27.4616983,9.36237149 27.3201134,9.43971748 L27.3201134,9.51706346 L27.3201134,9.51706346 C26.7436605,10.0584854 26.329019,10.5225613 25.7525662,10.9645383 C25.6109813,11.0750326 25.4592832,11.1965763 25.3278115,11.2739223 C25.3278115,11.3070705 25.257019,11.3070705 25.1761134,11.3512682 C25.1761134,11.3512682 25.1053209,11.4286142 25.0345285,11.4286142 C24.7513586,11.6717016 24.4681888,11.8263936 24.0940002,12.0142338 C23.4568681,12.3678155 22.8096228,12.6882488 22.1623775,12.9644845 C22.0915851,12.9644845 22.0106794,12.9976328 22.0106794,12.9976328 C22.0106794,13.0307811 21.8690945,13.0307811 21.8690945,13.0749788 C21.7173964,13.1191765 21.5151322,13.185473 21.3634341,13.2296707 C21.0195851,13.340165 20.6555096,13.4617087 20.3015473,13.5390547 C19.7352077,13.7047961 19.1587549,13.8152903 18.6530945,13.9036858 C18.3699247,13.9810317 18.0867549,14.01418 17.7327926,14.0583777 C17.6518869,14.0583777 17.5204152,14.091526 17.3687171,14.091526 C17.2979247,14.091526 17.1563398,14.091526 17.1563398,14.1357237 C16.0135473,14.2130697 14.8606417,14.1357237 13.7279624,14.2130697 C13.222302,14.2130697 12.7874341,14.4893054 12.5750568,14.9865295 C12.4334719,15.4506054 12.5750568,16.2019664 13.1616228,16.3677078 C14.5976983,16.6770918 16.2360379,16.5223998 17.7429058,16.3677078 C19.2295473,16.1577687 20.6555096,15.8483848 22.0106794,15.3401112 C23.30517,14.8649858 24.5996605,14.2904157 25.742453,13.494857 L25.742453,14.01418 C25.6817737,14.1799214 25.6109813,14.3346134 25.6109813,14.4893054 L25.6109813,14.5224536 C25.6109813,14.5997996 25.5401888,14.6771456 25.5401888,14.7102939 C25.4592832,15.0638755 25.3278115,15.3732595 25.1761134,15.6936928 C25.0345285,15.8152365 25.0345285,15.9699285 24.8929436,16.0804228 L24.8929436,16.113571 C24.8929436,16.1467193 24.8929436,16.2351147 24.8221511,16.268263 C24.670453,16.5444987 24.4681888,16.8207343 24.3164907,17.09697 C24.1647926,17.2074642 24.1041134,17.3290079 24.0333209,17.4505516 C23.9625285,17.538947 23.8816228,17.5720953 23.8816228,17.616293 C23.598453,17.8925287 23.3860756,18.0803689 23.1736983,18.3234563 C22.8804152,18.5112966 22.7388303,18.7101862 22.4455473,18.9090759 C22.3848681,18.9422242 22.1623775,19.0637679 22.1623775,19.0969162 C22.0106794,19.1853116 21.9500002,19.2626576 21.8792077,19.3400035 C21.3027549,19.6493875 20.726302,19.9587714 20.08917,20.2350071 C19.8767926,20.3565508 19.5936228,20.4780945 19.3003398,20.5996382 C19.3812454,20.5554405 19.01717,20.6659347 19.01717,20.7101324 C18.8047926,20.7543301 18.5924152,20.8316761 18.4407171,20.8648244 C17.7934719,21.0526646 17.1462266,21.2073566 16.4989813,21.3289003 C16.145019,21.4062463 15.8618492,21.4393946 15.4269813,21.52779 C15.2752832,21.52779 15.1438115,21.5609383 14.9921134,21.5609383 C14.9213209,21.5940865 14.8505285,21.5940865 14.7999624,21.5940865 C14.7190568,21.5940865 14.7190568,21.5940865 14.6482643,21.6272348 L14.5774719,21.6272348 C14.4257737,21.6272348 14.294302,21.6272348 14.1426039,21.6714325 C13.8594341,21.6714325 13.8594341,21.6714325 13.5661511,21.7045808 C13.2121888,21.7598279 12.8481134,21.7598279 12.4941511,21.7598279 C11.857019,21.7598279 11.1996605,21.7266797 10.5625285,21.6382842 C9.90516997,21.5609383 9.26803789,21.52779 8.70169827,21.2515543 C8.41852846,21.1631589 8.26683034,21.5609383 8.48932091,21.6382842 C8.98486808,21.9145199 9.5512077,22.2681015 10.0568681,22.5001395 C10.6232077,22.7763752 11.1996605,22.9310671 11.857019,23.1299568 C13.0706039,23.4282913 14.4358869,23.627181 15.7202643,23.5608844 C17.1462266,23.472489 18.5924152,23.1962534 20.0183775,22.6548315 L20.0183775,22.9310671 C20.0183775,23.0415614 20.0183775,23.1962534 19.9475851,23.3619948 C19.8767926,23.395143 19.8767926,23.4282913 19.8767926,23.472489 C19.8767926,23.5940327 19.8767926,23.704527 19.7958869,23.781873 C19.7352077,23.9034167 19.7352077,24.0249603 19.6644152,24.1023063 L19.6644152,24.1023063 C19.5936228,24.1907017 19.5936228,24.1907017 19.5936228,24.22385 C19.4419247,24.378542 19.3812454,24.533234 19.3003398,24.6547777 C19.2295473,24.6879259 19.1587549,24.8094696 19.0879624,24.8426179 C19.01717,24.9199639 18.8755851,25.0083593 18.8047926,25.1188536 C18.7238869,25.207249 18.5924152,25.2514467 18.5115096,25.3177432 C18.5115096,25.3508915 18.4407171,25.3508915 18.4407171,25.3950892 C18.2283398,25.5166329 18.0159624,25.6271272 17.7327926,25.7486709 C17.510302,25.8702146 17.2979247,25.9475605 17.0754341,26.0691042 C17.0046417,26.0691042 17.0046417,26.1022525 16.8630568,26.1022525 C16.7214719,26.1795985 16.5697737,26.2127468 16.438302,26.2569445 C15.8618492,26.4226859 15.3561888,26.5331801 14.7999624,26.5773778 C14.6482643,26.6215756 14.5774719,26.6436744 14.4257737,26.6436744 C14.8505285,26.6105261 14.001019,26.6878721 14.1426039,26.6436744 C14.1426039,26.6878721 14.1426039,26.6878721 14.0718115,26.6878721 L13.7178492,26.6878721 C13.5661511,26.7320698 13.4346794,26.7320698 13.2829813,26.7320698 C12.6458492,26.7652181 12.0693964,26.7652181 11.4120379,26.7320698 C10.2692454,26.6878721 9.26803789,26.6215756 8.12524544,26.3342905 C7.2656228,26.1022525 6.26441525,25.8702146 5.54637751,25.1630513 C5.40479261,25.0083593 5.1216228,25.2735455 5.25309449,25.4392869 C5.90033978,26.1022525 6.54758506,26.7652181 7.33641525,27.2403434 C8.26683034,27.7817653 9.32871714,28.212693 10.4108303,28.4778792 C11.1288681,28.6436206 11.9884907,28.7541149 12.7773209,28.8425103 C12.5649436,28.9530045 12.4233586,29.1076965 12.2817737,29.2734379 C12.2817737,29.2292402 11.9986039,29.4281299 11.9278115,29.4723276 C11.857019,29.5386241 11.7053209,29.6159701 11.563736,29.7043655 C11.4221511,29.7375138 11.2805662,29.8259092 11.1288681,29.8922058 C11.0580756,29.8922058 10.8456983,30.0137495 10.7749058,30.0137495 C10.2692454,30.2126391 9.70290582,30.3231334 9.11633978,30.4004794 L9.11633978,30.4004794 L8.85339638,30.4004794 L8.41852846,30.4004794 C8.13535865,30.4004794 7.84207563,30.4004794 7.55890582,30.3562817 C7.275736,30.3562817 6.98245299,30.3231334 6.69928317,30.2457874 C6.69928317,30.2457874 6.69928317,30.2457874 6.61837751,30.2457874 C6.54758506,30.2126391 6.40600015,30.2126391 6.3352077,30.1684414 C6.1936228,30.1684414 6.05203789,30.1352932 5.82954732,30.0910954 C5.25309449,29.8922058 4.68675487,29.7375138 4.06984921,29.4944264 C2.90683034,29.1076965 1.68313223,28.5552252 0.712264306,27.6933699 C0.560566193,27.5497274 0.277396381,27.8591113 0.429094495,28.0138033 C1.44041525,29.3065862 2.43150959,30.676715 3.82713223,31.505422 C5.25309449,32.3672773 6.83075487,32.7982049 8.48932091,32.7540072 C10.2692454,32.7098095 11.857019,32.1683876 13.3537737,31.1076427 C14.1426039,30.5993691 14.7999624,29.9364035 15.3561888,29.1850425 C15.4269813,29.0303505 15.5685662,28.8425103 15.7101511,28.6767689 C16.2866039,28.5552252 16.8630568,28.4115826 17.510302,28.212693 C18.8755851,27.6933699 20.1700756,26.9309595 21.0195851,25.7044732 C21.8792077,24.6437282 22.3140756,23.0857591 22.1623775,21.6714325 C22.6680379,21.3951969 23.1736983,21.0858129 23.598453,20.7432807 C26.4604907,18.6991368 28.2606417,15.2848641 28.179736,11.5722568 C28.6853964,11.1081809 29.1202643,10.5888578 29.545019,10.0474359 C31.4867549,7.53921613 32.3362643,4.36803075 32.3362643,1.11949939 C32.4070568,0.357088964 31.4867549,0.0808533035 30.910302,0.40128667 L30.910302,0.40128667 Z" id="Shape"></path>
                </g>
            </g>
        </g>
    </g>
</svg>