<?xml version="1.0" encoding="UTF-8" standalone="no"?>
<svg width="263px" height="45px" viewBox="0 0 263 45" version="1.1" xmlns="http://www.w3.org/2000/svg" xmlns:xlink="http://www.w3.org/1999/xlink">
    <!-- Generator: Sketch 39.1 (31720) - http://www.bohemiancoding.com/sketch -->
    <title>Wings Airlines Logo</title>
    <desc>Created with Sketch.</desc>
    <defs></defs>
    <g id="Symbols" stroke="none" stroke-width="1" fill="none" fill-rule="evenodd">
        <g id="Wings-Airlines-Logo" fill="#19707B">
            <g transform="translate(0.500000, 0.684184)">
                <text id="WingsAirlines" font-family="RobotoCondensed-Bold, Roboto Condensed" font-size="25" font-style="condensed" font-weight="bold">
                    <tspan x="66.09375" y="30.8532356">WingsAirlines</tspan>
                </text>
                <path d="M43.4676122,0.536454809 C38.6180132,3.09188633 33.8821877,4.61332821 28.5490509,6.11999882 C23.5145698,7.59712686 18.2667632,8.89699954 13.4313858,10.9945214 C11.1274707,11.925112 8.80933394,13.0920432 6.78985281,14.4953148 C5.56678677,15.2338789 4.51438111,16.0610706 3.53308394,16.9030335 C2.42379149,17.8336242 1.49938111,18.8971564 0.546527341,19.8720609 C0.0487679066,20.3447419 0.603414133,21.0833059 1.10117357,20.6549388 C2.15357923,19.768662 3.37664527,19.1039543 4.48593772,18.3653903 C5.62367357,17.6268263 6.78985281,17.0064325 7.99869715,16.4303526 C10.2172821,15.2191076 12.620749,14.1703467 15.0384377,13.239756 C15.2517632,13.1954422 15.4366453,13.1954422 15.5504189,13.0772719 L15.6499707,13.0772719 C15.6499707,13.0772719 15.6499707,13.0329581 15.7495226,13.0329581 C16.0624,12.9295591 16.3610556,12.8261601 16.673933,12.7227612 C17.2712443,12.5159633 17.8827773,12.3091653 18.5938622,12.1023674 C19.9022585,11.7330854 21.0968811,11.3638034 22.3199472,10.9945214 C24.9367396,10.2559573 27.3402066,9.57647844 29.956999,8.83791442 C34.1950651,7.64144071 38.2198056,6.2824829 42.2445462,4.40653029 C42.2445462,4.7758123 42.1449943,5.07123791 42.0454424,5.44051992 C42.0454424,5.91320089 41.832117,6.38588187 41.7467868,6.79947772 C41.7467868,6.84379156 41.6472349,7.00627565 41.6472349,7.06536077 C41.6472349,7.16875973 41.6472349,7.27215869 41.5334613,7.43464278 C41.4481311,7.70052583 41.3485792,7.95163759 41.2490273,8.21752064 C41.0357019,8.69020162 40.8508198,9.14811131 40.6374943,9.57647844 C40.6374943,9.62079229 40.4241689,9.9900743 40.4241689,10.0491594 C40.2392868,10.2559573 40.1397349,10.4627553 40.0259613,10.6843245 C39.7415273,11.0388352 39.42865,11.4081172 39.2153245,11.7773992 C39.0304424,11.9841972 38.817117,12.1909951 38.7175651,12.3534792 C38.6180132,12.4568781 38.6180132,12.5159633 38.4189094,12.6193622 L38.4189094,12.7227612 L38.4189094,12.7227612 C37.6082726,13.4465539 37.025183,14.0669477 36.2145462,14.6577989 C36.0154424,14.8055117 35.802117,14.9679958 35.6172349,15.0713948 C35.6172349,15.1157086 35.517683,15.1157086 35.4039094,15.1747937 C35.4039094,15.1747937 35.3043575,15.2781927 35.2048056,15.2781927 C34.8065981,15.6031609 34.4083905,15.8099588 33.8821877,16.0610706 C32.9862207,16.5337515 32.0760321,16.9621187 31.1658434,17.3314007 C31.0662915,17.3314007 30.9525179,17.3757145 30.9525179,17.3757145 C30.9525179,17.4200284 30.7534141,17.4200284 30.7534141,17.4791135 C30.5400887,17.5381986 30.2556547,17.6268263 30.0423292,17.6859114 C29.5587915,17.8336242 29.0468104,17.9961083 28.5490509,18.0995073 C27.7526358,18.3210765 26.941999,18.4687893 26.2309141,18.5869595 C25.8327066,18.6903585 25.434499,18.7346723 24.9367396,18.7937574 C24.822966,18.7937574 24.6380839,18.8380713 24.4247585,18.8380713 C24.3252066,18.8380713 24.1261028,18.8380713 24.1261028,18.8971564 C22.5190509,19.0005554 20.8977773,18.8971564 19.3049472,19.0005554 C18.5938622,19.0005554 17.9823292,19.3698374 17.6836736,20.034545 C17.4845698,20.6549388 17.6836736,21.6593859 18.5085321,21.8809551 C20.5280132,22.2945509 22.8319283,22.087753 24.9509613,21.8809551 C27.0415509,21.6003007 29.0468104,21.1867049 30.9525179,20.507226 C32.7728953,19.8720609 34.5932726,19.1039543 36.2003245,18.0404221 L36.2003245,18.7346723 C36.1149943,18.9562415 36.0154424,19.1630395 36.0154424,19.3698374 L36.0154424,19.4141512 C36.0154424,19.5175502 35.9158905,19.6209491 35.9158905,19.665263 C35.802117,20.137944 35.6172349,20.5515398 35.4039094,20.979907 C35.2048056,21.142391 35.2048056,21.349189 35.0057019,21.4969018 L35.0057019,21.5412156 C35.0057019,21.5855294 35.0057019,21.7036997 34.90615,21.7480135 C34.6928245,22.1172955 34.4083905,22.4865776 34.1950651,22.8558596 C33.9817396,23.0035724 33.8964094,23.1660565 33.7968575,23.3285405 C33.6973056,23.4467108 33.5835321,23.4910246 33.5835321,23.5501097 C33.1853245,23.9193918 32.8866689,24.1705035 32.5880132,24.4954717 C32.1755839,24.7465835 31.9764802,25.0124665 31.5640509,25.2783496 C31.4787207,25.3226634 31.1658434,25.4851475 31.1658434,25.5294613 C30.9525179,25.6476316 30.8671877,25.7510305 30.7676358,25.8544295 C29.956999,26.2680254 29.1463622,26.6816212 28.2503953,27.0509032 C27.9517396,27.2133873 27.5535321,27.3758714 27.1411028,27.5383555 C27.2548764,27.4792703 26.7428953,27.6269832 26.7428953,27.6860683 C26.4442396,27.7451534 26.1455839,27.8485524 25.9322585,27.8928662 C25.0220698,28.143978 24.1118811,28.3507759 23.2016924,28.51326 C22.703933,28.6166589 22.3057255,28.6609728 21.6941924,28.779143 C21.480867,28.779143 21.2959849,28.8234569 21.0826594,28.8234569 C20.9831075,28.8677707 20.8835556,28.8677707 20.8124472,28.8677707 C20.6986736,28.8677707 20.6986736,28.8677707 20.5991217,28.9120846 L20.4995698,28.9120846 C20.2862443,28.9120846 20.1013622,28.9120846 19.8880368,28.9711697 C19.4898292,28.9711697 19.4898292,28.9711697 19.0774,29.0154835 C18.5796405,29.0893399 18.0676594,29.0893399 17.5699,29.0893399 C16.673933,29.0893399 15.7495226,29.0450261 14.8535556,28.9268558 C13.9291453,28.8234569 13.0331783,28.779143 12.2367632,28.409861 C11.8385556,28.2916908 11.6252302,28.8234569 11.9381075,28.9268558 C12.6349707,29.2961378 13.4313858,29.7688188 14.1424707,30.0790157 C14.9388858,30.4482977 15.7495226,30.6550956 16.673933,30.9209787 C18.3805368,31.3198033 20.300466,31.5856863 22.1066217,31.4970586 C24.1118811,31.3788884 26.1455839,31.0096064 28.1508434,30.2858136 L28.1508434,30.6550956 C28.1508434,30.8028084 28.1508434,31.0096064 28.0512915,31.2311756 C27.9517396,31.2754894 27.9517396,31.3198033 27.9517396,31.3788884 C27.9517396,31.5413725 27.9517396,31.6890853 27.837966,31.7924842 C27.7526358,31.9549683 27.7526358,32.1174524 27.6530839,32.2208514 L27.6530839,32.2208514 C27.5535321,32.3390216 27.5535321,32.3390216 27.5535321,32.3833355 C27.3402066,32.5901334 27.2548764,32.7969313 27.1411028,32.9594154 C27.0415509,33.0037292 26.941999,33.1662133 26.8424472,33.2105272 C26.7428953,33.3139261 26.5437915,33.4320964 26.4442396,33.5798092 C26.330466,33.6979794 26.1455839,33.7570645 26.0318104,33.8456922 C26.0318104,33.8900061 25.9322585,33.8900061 25.9322585,33.9490912 C25.6336028,34.1115753 25.3349472,34.2592881 24.9367396,34.4217722 C24.6238622,34.5842562 24.3252066,34.6876552 24.0123292,34.8501393 C23.9127773,34.8501393 23.9127773,34.8944531 23.7136736,34.8944531 C23.5145698,34.9978521 23.3012443,35.0421659 23.1163622,35.1012511 C22.3057255,35.3228203 21.5946405,35.4705331 20.8124472,35.5296182 C20.5991217,35.5887033 20.4995698,35.6182459 20.2862443,35.6182459 C20.8835556,35.573932 19.688933,35.677331 19.8880368,35.6182459 C19.8880368,35.677331 19.8880368,35.677331 19.7884849,35.677331 L19.2907255,35.677331 C19.0774,35.7364161 18.8925179,35.7364161 18.6791924,35.7364161 C17.7832255,35.78073 16.9725887,35.78073 16.0481783,35.7364161 C14.4411264,35.677331 13.0331783,35.5887033 11.4261264,35.20465 C10.2172821,34.8944531 8.80933394,34.5842562 7.79959338,33.6388943 C7.6004896,33.4320964 7.20228206,33.7866071 7.38716413,34.0081763 C8.29735281,34.8944531 9.20754149,35.78073 10.3168339,36.415895 C11.6252302,37.1396878 13.1185085,37.7157677 14.6402302,38.0702784 C15.6499707,38.2918476 16.8588151,38.4395604 17.9681075,38.5577307 C17.6694519,38.7054435 17.4703481,38.9122414 17.2712443,39.1338106 C17.2712443,39.0747255 16.8730368,39.3406085 16.7734849,39.3996937 C16.673933,39.4883214 16.4606075,39.5917203 16.2615038,39.7098906 C16.0624,39.7542044 15.8632962,39.8723746 15.6499707,39.9610023 C15.5504189,39.9610023 15.2517632,40.1234864 15.1522113,40.1234864 C14.4411264,40.3893695 13.6447113,40.5370823 12.8198528,40.6404812 L12.8198528,40.6404812 L12.4500887,40.6404812 L11.8385556,40.6404812 C11.4403481,40.6404812 11.0279189,40.6404812 10.6297113,40.5813961 C10.2315038,40.5813961 9.81907451,40.5370823 9.42086696,40.4336833 C9.42086696,40.4336833 9.42086696,40.4336833 9.30709338,40.4336833 C9.20754149,40.3893695 9.00843772,40.3893695 8.90888583,40.3302843 C8.70978206,40.3302843 8.51067828,40.2859705 8.19780093,40.2268854 C7.38716413,39.9610023 6.59074904,39.7542044 5.72322545,39.4292362 C4.08773017,38.9122414 2.3669047,38.1736774 1.00162168,37.0215175 C0.788296209,36.8294909 0.390088661,37.2430867 0.603414133,37.4498847 C2.02558394,39.1781245 3.41931036,41.0097632 5.3819047,42.1176093 C7.38716413,43.2697691 9.60574904,43.8458491 11.9381075,43.786764 C14.4411264,43.7276788 16.673933,43.0038861 18.7787443,41.5858432 C19.8880368,40.9063643 20.8124472,40.0200875 21.5946405,39.0156404 C21.6941924,38.8088425 21.8932962,38.5577307 22.0924,38.3361615 C22.9030368,38.1736774 23.7136736,37.9816507 24.6238622,37.7157677 C26.5437915,37.0215175 28.3641689,36.0022992 29.5587915,34.362687 C30.7676358,32.9446441 31.3791689,30.8618936 31.1658434,28.9711697 C31.8769283,28.6018877 32.5880132,28.1882918 33.1853245,27.7303821 C37.2100651,24.9976952 39.7415273,20.4333696 39.6277538,15.4702193 C40.3388387,14.8498256 40.9503717,14.1555754 41.547683,13.4317826 C44.278249,10.078702 45.4728717,5.83934449 45.4728717,1.49658804 C45.5724236,0.477369687 44.278249,0.108087676 43.4676122,0.536454809 L43.4676122,0.536454809 Z" id="Shape"></path>
            </g>
        </g>
    </g>
</svg>