<?xml version="1.0" encoding="UTF-8" standalone="no"?>
<svg width="36px" height="36px" viewBox="0 0 36 36" version="1.1" xmlns="http://www.w3.org/2000/svg" xmlns:xlink="http://www.w3.org/1999/xlink">
    <!-- Generator: sketchtool 39.1 (31720) - http://www.bohemiancoding.com/sketch -->
    <title>FCD62120-343D-4D6A-BC39-B2245FADA0AB</title>
    <desc>Created with sketchtool.</desc>
    <defs></defs>
    <g id="Symbols" stroke="none" stroke-width="1" fill="none" fill-rule="evenodd">
        <g id="Wings-Flight-Logo" transform="translate(-6.000000, -4.000000)" fill="#FFFFFF">
            <g id="Wings-Logo">
                <path d="M28.7213517,8.68534415 C24.8166408,9.87575506 20.746476,10.9233167 16.9961887,12.6137001 C15.2092871,13.363659 13.4113552,14.3040836 11.8450587,15.434974 C10.8964566,16.0301794 10.0802176,16.6968095 9.3191299,17.3753438 C8.45876987,18.1253026 7.74180317,18.9823985 7.00277597,19.7680697 C6.61671698,20.1490012 7.04689699,20.7442066 7.43295598,20.3989875 C8.24919499,19.6847409 9.19779708,19.149056 10.0581571,18.5538506 C10.9405777,17.9586451 11.8450587,17.4586725 12.7826305,16.9944123 C14.5033506,16.0182753 16.367464,15.1730836 18.2426077,14.4231247 C18.4080615,14.3874124 18.5514549,14.3874124 18.6396969,14.2921795 C18.7169087,14.2921795 18.7169087,14.2564672 18.7941205,14.2564672 C19.0367862,14.1731384 19.2684216,14.0898097 19.5110872,14.0064809 C19.974358,13.8398234 20.448659,13.6731658 21.0001719,13.5065083 C22.0149555,13.2089056 22.9414971,12.9113029 23.8900992,12.6137001 C25.9196664,12.0184947 27.7837798,11.4709057 29.8133471,10.8757002 C33.1003636,9.91146738 36.2219263,8.81628935 39.343489,7.3044675 C39.343489,7.60207023 39.2662772,7.84015241 39.1890654,8.13775513 C39.1890654,8.51868662 39.0236116,8.89961811 38.95743,9.23293317 C38.95743,9.26864549 38.8802182,9.39959069 38.8802182,9.44720713 C38.8802182,9.53053589 38.8802182,9.61386466 38.7919762,9.74480986 C38.7257946,9.95908382 38.6485828,10.1614537 38.571371,10.3757276 C38.4059172,10.7566591 38.2625238,11.1256865 38.09707,11.4709057 C38.09707,11.506618 37.9316161,11.8042207 37.9316161,11.8518372 C37.7882228,12.0184947 37.711011,12.1851522 37.6227689,12.3637138 C37.4021638,12.6494125 37.1594982,12.9470152 36.9940443,13.2446179 C36.850651,13.4112754 36.6851971,13.577933 36.6079853,13.7088782 C36.5307735,13.7922069 36.5307735,13.8398234 36.3763499,13.9231521 C35.7476253,14.5897822 35.2953848,15.0897548 34.6666601,15.5659192 C34.5122365,15.6849603 34.3467827,15.8159055 34.2033893,15.8992342 C34.2033893,15.9349466 34.1261775,15.9349466 34.0379355,15.982563 C34.0379355,15.982563 33.9607237,16.0658918 33.8835119,16.0658918 C33.5746647,16.3277822 33.2658175,16.4944397 32.857698,16.6968095 C32.1627918,17.077741 31.4568554,17.4229602 30.7509189,17.7205629 C30.6737071,17.7205629 30.5854651,17.7562752 30.5854651,17.7562752 C30.5854651,17.7919876 30.4310415,17.7919876 30.4310415,17.839604 C30.2655876,17.8872204 30.0449825,17.9586451 29.8795286,18.0062615 C29.5044999,18.1253026 29.1074107,18.2562478 28.7213517,18.3395766 C28.1036573,18.5181382 27.4749327,18.6371793 26.9234198,18.7324122 C26.6145726,18.8157409 26.3057254,18.8514533 25.9196664,18.8990697 C25.8314244,18.8990697 25.688031,18.934782 25.5225772,18.934782 C25.4453654,18.934782 25.2909418,18.934782 25.2909418,18.9823985 C24.0445228,19.0657272 22.7870735,18.9823985 21.5516847,19.0657272 C21.0001719,19.0657272 20.5258708,19.36333 20.2942355,19.8990149 C20.1398119,20.3989875 20.2942355,21.2084669 20.9339904,21.3870285 C22.5002868,21.7203436 24.2871884,21.553686 25.9306967,21.3870285 C27.5521445,21.1608504 29.1074107,20.8275354 30.5854651,20.2799464 C31.997338,19.7680697 33.4092108,19.149056 34.6556299,18.2919602 L34.6556299,18.8514533 C34.5894483,19.0300149 34.5122365,19.1966724 34.5122365,19.36333 C34.5122365,19.4823711 34.4350247,19.5656998 34.4350247,19.6014121 C34.3467827,19.9823436 34.2033893,20.3156587 34.0379355,20.6608779 C33.8835119,20.7918231 33.8835119,20.9584806 33.7290883,21.0775217 C33.7290883,21.1489463 33.7290883,21.2441792 33.6518765,21.2798915 C33.4864226,21.5774942 33.2658175,21.875097 33.1003636,22.1726997 C32.9349098,22.2917408 32.8687282,22.422686 32.7915164,22.5536312 C32.7143047,22.6488641 32.6260626,22.6845764 32.6260626,22.7321928 C32.3172154,23.0297956 32.08558,23.2321654 31.8539446,23.4940558 C31.5340672,23.6964257 31.3796436,23.9106996 31.0597661,24.1249736 C30.9935846,24.1606859 30.7509189,24.2916311 30.7509189,24.3273434 C30.5854651,24.4225763 30.5192835,24.5059051 30.4420717,24.5892338 C29.8133471,24.9225489 29.1846225,25.2558639 28.4897163,25.5534667 C28.2580809,25.6844119 27.9492337,25.8153571 27.6293563,25.9463023 C27.7175983,25.8986858 27.3205091,26.0177269 27.3205091,26.0653434 C27.0888737,26.1129598 26.8572383,26.1962886 26.6917844,26.2320009 C25.985848,26.4343707 25.2799115,26.6010283 24.5739751,26.7319735 C24.1879161,26.8153022 23.8790689,26.8510146 23.4047679,26.9462474 C23.239314,26.9462474 23.0959207,26.9819598 22.9304668,26.9819598 C22.853255,27.0176721 22.7760432,27.0176721 22.720892,27.0176721 C22.6326499,27.0176721 22.6326499,27.0176721 22.5554381,27.0533844 C22.3127725,27.0533844 22.1693791,27.0533844 22.0039253,27.1010008 C21.6950781,27.1010008 21.6950781,27.1010008 21.3752006,27.1367132 C20.9891416,27.1962337 20.5920524,27.1962337 20.2059934,27.1962337 C19.5110872,27.1962337 18.7941205,27.1605214 18.0992143,27.0652885 C17.3822476,26.9819598 16.6873415,26.9462474 16.0696471,26.6486447 C15.7607999,26.5534118 15.595346,26.9819598 15.8380117,27.0652885 C16.3784943,27.3628912 16.9961887,27.7438227 17.5477015,27.993809 C18.1653959,28.2914118 18.7941205,28.4580693 19.5110872,28.6723432 C20.834718,28.9937542 22.3238027,29.2080281 23.7246453,29.1366035 C25.2799115,29.0413706 26.8572383,28.7437679 28.4125045,28.1604666 L28.4125045,28.4580693 C28.4125045,28.5771104 28.4125045,28.7437679 28.3352927,28.9223295 C28.2580809,28.9580419 28.2580809,28.9937542 28.2580809,29.0413706 C28.2580809,29.1723158 28.2580809,29.2913569 28.1698388,29.3746857 C28.1036573,29.5056309 28.1036573,29.6365761 28.0264455,29.7199048 C27.9492337,29.8151377 27.9492337,29.8151377 27.9492337,29.85085 C27.7837798,30.0175076 27.7175983,30.1841651 27.6293563,30.3151103 C27.5521445,30.3508226 27.4749327,30.4817678 27.3977209,30.5174801 C27.3205091,30.6008089 27.1660855,30.6960418 27.0888737,30.8150829 C27.0006316,30.9103157 26.8572383,30.9579322 26.7689962,31.0293568 C26.7689962,31.0650692 26.6917844,31.0650692 26.6917844,31.1126856 C26.460149,31.2436308 26.2285136,31.3626719 25.9196664,31.4936171 C25.6770008,31.6245623 25.4453654,31.707891 25.2026997,31.8388362 C25.1254879,31.8388362 25.1254879,31.8745486 24.9710644,31.8745486 C24.8166408,31.9578773 24.6511869,31.9935897 24.5077936,32.0412061 C23.8790689,32.2197677 23.3275561,32.3388088 22.720892,32.3864253 C22.5554381,32.4340417 22.4782263,32.4578499 22.3127725,32.4578499 C22.7760432,32.4221376 21.8495017,32.5054664 22.0039253,32.4578499 C21.9267135,32.5054664 21.6178663,32.5054664 21.5406545,32.5054664 C21.3752006,32.5530828 21.2318073,32.5530828 21.0663534,32.5530828 C20.3714473,32.5887951 19.7427226,32.5887951 19.0257559,32.5530828 C17.7793369,32.5054664 16.6873415,32.4340417 15.4409224,32.1245349 C14.5033506,31.8745486 13.4113552,31.6245623 12.628207,30.8626993 C12.4737834,30.6960418 12.1649362,30.9817404 12.3083295,31.160302 C13.0142659,31.8745486 13.7202024,32.5887951 14.5805624,33.1006718 C15.595346,33.6839731 16.753523,34.1482334 17.9337605,34.433932 C18.7169087,34.6124937 19.6544806,34.7315347 20.5148406,34.8267676 C20.2832052,34.9458087 20.1287816,35.1124662 19.974358,35.2910279 C19.974358,35.2434114 19.6655108,35.4576854 19.588299,35.5053018 C19.5110872,35.5767265 19.3456334,35.6600553 19.1912098,35.7552881 C19.0367862,35.7910005 18.8823626,35.8862333 18.7169087,35.957658 C18.6396969,35.957658 18.4080615,36.0886032 18.3308497,36.0886032 C17.7793369,36.3028771 17.1616425,36.4219182 16.5218876,36.505247 L16.2351009,36.505247 L15.7607999,36.505247 C15.4519527,36.505247 15.1320753,36.505247 14.8232281,36.4576306 C14.5143809,36.4576306 14.1945034,36.4219182 13.8856562,36.3385895 C13.7202024,36.3028771 13.5657788,36.3028771 13.488567,36.2552607 C13.3341434,36.2552607 13.1797198,36.2195484 12.9370541,36.1719319 C12.3083295,35.957658 11.6906351,35.7910005 11.0177895,35.5291101 C9.74930992,35.1124662 8.41464884,34.5172608 7.35574418,33.5887403 C7.19029033,33.4339869 6.88144314,33.7673019 7.04689699,33.9339594 C8.14992268,35.3267402 9.23088785,36.8028497 10.7530633,37.6956579 C12.3083295,38.6241784 14.0290496,39.0884387 15.8380117,39.0408222 C17.7793369,38.9932058 19.5110872,38.4099044 21.1435652,37.26711 C22.0039253,36.719521 22.720892,36.0052744 23.3275561,35.195795 C23.4047679,35.0291375 23.5591915,34.8267676 23.7136151,34.648206 C24.3423397,34.5172608 24.9710644,34.3625074 25.6770008,34.1482334 C27.1660855,33.5887403 28.5779583,32.7673568 29.5044999,31.4460006 C30.4420717,30.3032062 30.9163728,28.6247268 30.7509189,27.1010008 C31.3024318,26.8033981 31.8539446,26.4700831 32.3172154,26.1010557 C35.4387781,23.8987955 37.4021638,20.2204258 37.3139218,16.2206452 C37.8654346,15.7206726 38.3397356,15.1611795 38.8030064,14.5778781 C40.9208157,11.8756454 41.8473573,8.45916608 41.8473573,4.95935802 C41.9245691,4.13797449 40.9208157,3.84037177 40.2920911,4.18559093 C36.5307735,6.2450018 32.857698,7.47112503 28.7213517,8.68534415 Z" id="Shape"></path>
            </g>
        </g>
    </g>
</svg>